<svg width="209" height="60" viewBox="0 0 209 60" fill="none" xmlns="http://www.w3.org/2000/svg">
<path fill-rule="evenodd" clip-rule="evenodd" d="M14.5139 0H209L204.646 7.25694L209 13.7882L204.646 21.7708L209 29.7535L204.646 37.0104L209 43.5417L204.646 50.7986L209 59.5069L194.486 59.507H0L4.35417 50.7987L0 43.5417L4.35417 37.0105L0 29.7535L4.35417 21.7709L0 13.7882L4.35417 7.257L0 5.42535e-05H14.5139V0Z" fill="black"/>
<path d="M99.7483 26.6785L95.4586 26.2495C96.1516 23.5437 96.2506 21.4978 96.2506 19.485H79.5537V16.0532H100.606V18.561C100.606 20.9699 100.606 23.5437 99.7483 26.6785ZM89.981 41.8244C94.1057 41.8244 96.4485 40.9995 96.4485 39.3826C96.4485 37.7327 94.1057 36.9078 89.981 36.9078C85.8893 36.9078 83.5464 37.7327 83.5464 39.3826C83.5464 40.9995 85.8893 41.8244 89.981 41.8244ZM89.981 33.641C96.5475 33.641 100.771 35.8189 100.771 39.3826C100.771 42.9134 96.5475 45.0912 89.981 45.0912C83.4474 45.0912 79.2237 42.9134 79.2237 39.3826C79.2237 35.8189 83.4474 33.641 89.981 33.641ZM90.9709 28.2954H103.84V31.7271H76.4849V28.2954H86.6152V22.9827H90.9709V28.2954ZM117.796 21.2008V22.8837C117.796 27.8334 120.237 33.08 125.319 35.1919L122.943 38.6237C119.412 37.1058 117.004 34.136 115.651 30.4732C114.298 34.4329 111.856 37.7657 108.292 39.3826L105.817 35.9178C110.899 33.641 113.374 28.0644 113.374 22.8837V21.2008H107.038V17.6041H124.065V21.2008H117.796ZM126.87 14.7003H131.226V45.0912H126.87V14.7003Z" fill="#EFEEEA"/>
</svg>
